<svg xmlns="http://www.w3.org/2000/svg" fill="none" viewBox="0 0 161 32" height="32" width="161">
                                <g clip-path="url(#clip0)">
                                    <path fill="black" d="M59.994 20.6868C59.2125 21.2743 58.3132 21.6853 57.3578 21.8916C56.8077 22.0075 56.2467 22.064 55.6846 22.0603C54.7578 22.0705 53.8392 21.8858 52.9882 21.5181C52.1802 21.1756 51.4493 20.6737 50.8392 20.0423C50.2291 19.411 49.7523 18.6632 49.4372 17.8434C49.0871 16.978 48.9033 16.0542 48.8955 15.1206C48.897 14.1824 49.081 13.2534 49.4372 12.3856C49.7586 11.5587 50.2369 10.8018 50.8456 10.1567C51.4776 9.49655 52.2389 8.97395 53.0819 8.62154C53.9249 8.26913 54.8314 8.09448 55.7448 8.1085C56.3018 8.10345 56.8581 8.15186 57.4059 8.25308C57.8822 8.38313 58.3456 8.55655 58.7902 8.77116C59.2117 8.95793 59.6147 9.18382 59.994 9.44585C60.3596 9.71871 60.7093 10.0124 61.0412 10.3254L59.994 11.4459C59.4418 10.9185 58.8177 10.4723 58.1402 10.1206C57.3939 9.74726 56.5667 9.56512 55.7327 9.59043C55.0391 9.5756 54.3501 9.70696 53.7105 9.97597C53.0841 10.2603 52.5228 10.6703 52.0613 11.1808C51.584 11.6961 51.2083 12.297 50.9539 12.9519C50.6946 13.6494 50.5641 14.3883 50.5687 15.1326C50.5651 15.8846 50.6956 16.6312 50.9539 17.3374C51.2083 17.9923 51.584 18.5932 52.0613 19.1085C52.5267 19.6145 53.0871 20.0239 53.7105 20.3133C54.3613 20.6056 55.0676 20.7536 55.7809 20.7471C56.612 20.7703 57.4368 20.5969 58.1884 20.241C58.9073 19.8591 59.568 19.3763 60.1505 18.8073L61.1496 19.7832C60.7866 20.1119 60.4004 20.4139 59.994 20.6868ZM64.9654 21.8555H63.4848V7.7832H64.9654V13.5904C65.3061 13.0456 65.7522 12.5745 66.2775 12.2049C66.9012 11.8057 67.6323 11.608 68.372 11.6386C68.9234 11.6278 69.4716 11.7261 69.985 11.9278C70.4415 12.1092 70.8524 12.3889 71.1887 12.7471C71.5241 13.1133 71.7821 13.5436 71.9471 14.0121C72.1214 14.5322 72.2069 15.078 72.1999 15.6266V21.8193H70.7072V16.0001C70.7488 15.2028 70.4961 14.4181 69.997 13.7953C69.7366 13.5179 69.4181 13.3016 69.0643 13.162C68.7105 13.0225 68.3302 12.963 67.9507 12.988C67.5392 12.9813 67.1303 13.055 66.747 13.2049C66.3836 13.3514 66.0553 13.5732 65.7836 13.8555C65.5118 14.1379 65.3028 14.4746 65.17 14.8434C65.0198 15.2274 64.9423 15.6359 64.9413 16.0483L64.9654 21.8555ZM77.3398 13.2651C76.8559 13.4006 76.3847 13.578 75.9315 13.7953L75.4861 12.5904C76.0247 12.3401 76.5847 12.1385 77.1593 11.988C77.7972 11.8307 78.4523 11.7538 79.1093 11.7591C80.2437 11.682 81.3642 12.0443 82.2391 12.7712C82.6261 13.1637 82.9251 13.6343 83.116 14.1516C83.307 14.6689 83.3856 15.2211 83.3465 15.7712V21.8675H81.9141V20.3495C81.5286 20.8355 81.0548 21.2443 80.5177 21.5543C79.8446 21.9254 79.0827 22.1046 78.3149 22.0724C77.8546 22.0735 77.3965 22.0086 76.9546 21.8796C76.5194 21.7676 76.1104 21.5711 75.7509 21.3013C75.4024 21.0413 75.1148 20.7082 74.9083 20.3254C74.6828 19.9035 74.5708 19.4302 74.5833 18.9519C74.5757 18.4678 74.6829 17.9888 74.8963 17.5543C75.1036 17.1511 75.405 16.804 75.775 16.5422C76.1846 16.2593 76.641 16.0513 77.1232 15.9278C77.6845 15.7778 78.2636 15.7049 78.8445 15.7109C79.4045 15.7088 79.9638 15.7491 80.5177 15.8314C80.9859 15.9032 81.4485 16.0078 81.902 16.1446V15.7953C81.9316 15.4189 81.8767 15.0408 81.7413 14.6884C81.6059 14.3361 81.3935 14.0186 81.1196 13.7591C80.5178 13.2748 79.7604 13.0264 78.989 13.0603C78.4325 13.0529 77.8776 13.1218 77.3398 13.2651ZM76.8704 17.3615C76.6301 17.5329 76.4362 17.7613 76.3059 18.0263C76.1756 18.2913 76.1131 18.5845 76.1241 18.8796C76.1151 19.1764 76.1814 19.4707 76.3167 19.735C76.461 19.9763 76.6487 20.1887 76.8704 20.3615C77.1118 20.5365 77.3801 20.6708 77.6649 20.7591C77.9742 20.8469 78.2942 20.8915 78.6158 20.8916C79.0572 20.8921 79.4959 20.823 79.9158 20.6868C80.293 20.561 80.6469 20.3738 80.9631 20.1326C81.2571 19.9004 81.4991 19.609 81.6733 19.2772C81.8536 18.9446 81.9448 18.5711 81.9381 18.1928V17.2049C81.5184 17.0854 81.0924 16.9889 80.6622 16.9157C80.1093 16.8249 79.5489 16.7885 78.989 16.8073C78.2419 16.7624 77.4999 16.9565 76.8704 17.3615ZM87.9809 21.8555H86.5003V11.8916H87.9809V14.494C88.1463 14.088 88.3605 13.7036 88.6189 13.3495C88.885 13.0106 89.1969 12.7106 89.5457 12.4579C89.8876 12.2055 90.2704 12.0139 90.6773 11.8916C91.1092 11.7561 91.561 11.695 92.0134 11.7109V13.3133H91.893C91.3696 13.3104 90.8505 13.4086 90.3643 13.6025C89.9056 13.802 89.4951 14.0978 89.1606 14.47C88.7849 14.8854 88.4982 15.3733 88.3179 15.9037C88.1014 16.5395 87.9955 17.2079 88.005 17.8796L87.9809 21.8555ZM96.2987 19.0242C96.2723 19.2607 96.3009 19.5002 96.3823 19.7239C96.4638 19.9475 96.5958 20.1493 96.7682 20.3133C97.1169 20.5668 97.5413 20.6943 97.9719 20.6748C98.2145 20.6758 98.4566 20.6515 98.6942 20.6025C98.9451 20.5393 99.1876 20.4463 99.4164 20.3254V21.6025C99.1607 21.7471 98.8848 21.8527 98.5979 21.9157C98.2785 21.9915 97.951 22.0279 97.6228 22.0242C97.2439 22.0288 96.8665 21.976 96.5034 21.8675C96.1731 21.7783 95.8681 21.6133 95.6126 21.3856C95.3507 21.142 95.1488 20.841 95.0228 20.5061C94.8699 20.0939 94.7963 19.6565 94.8061 19.2169V13.1928H93.4338V11.8916H94.8181V8.87959H96.2987V11.8916H99.4525V13.1928H96.2987V19.0242ZM110.587 12.8916C110.812 12.6472 111.066 12.4326 111.345 12.2531C111.639 12.0646 111.96 11.9224 112.296 11.8314C112.687 11.7187 113.093 11.6659 113.5 11.6748C114.002 11.6478 114.504 11.7296 114.971 11.9147C115.439 12.0998 115.861 12.3837 116.209 12.7471C116.906 13.5616 117.26 14.6158 117.196 15.6868V21.8555H115.703V16.0001C115.756 15.1979 115.512 14.4042 115.017 13.7712C114.777 13.5081 114.482 13.3015 114.154 13.1661C113.825 13.0307 113.47 12.9699 113.115 12.988C112.752 12.9885 112.393 13.058 112.056 13.1928C111.725 13.3263 111.426 13.5274 111.177 13.7832C110.92 14.0679 110.72 14.3992 110.587 14.7591C110.427 15.1781 110.35 15.624 110.358 16.0724V21.8193H108.902V16.0001C108.95 15.2133 108.706 14.4366 108.216 13.8193C107.979 13.5595 107.688 13.3548 107.364 13.2195C107.039 13.0842 106.689 13.0217 106.338 13.0362C105.96 13.0292 105.586 13.1075 105.242 13.2651C104.906 13.4211 104.606 13.647 104.364 13.9278C104.108 14.2176 103.908 14.5527 103.774 14.9157C103.628 15.3211 103.559 15.7501 103.569 16.1808V21.8675H102.077V11.8916H103.569V13.5904C103.735 13.3428 103.916 13.1054 104.111 12.8796C104.313 12.6469 104.544 12.4404 104.797 12.2651C105.064 12.0858 105.356 11.9477 105.664 11.8555C106.026 11.7436 106.404 11.6907 106.783 11.6989C107.492 11.6732 108.191 11.8713 108.781 12.2651C109.3 12.6256 109.715 13.1158 109.985 13.6868C110.161 13.4037 110.362 13.1375 110.587 12.8916ZM121.686 18.8555C121.877 19.2582 122.148 19.6186 122.48 19.9157C122.79 20.2019 123.155 20.4231 123.551 20.5663C123.935 20.7151 124.343 20.7927 124.755 20.7953C125.371 20.8112 125.982 20.679 126.537 20.4097C127.043 20.1447 127.502 19.7988 127.897 19.3856L128.824 20.2169C128.344 20.7639 127.774 21.2244 127.138 21.5784C126.389 21.9392 125.563 22.1128 124.731 22.0844C124.071 22.0898 123.416 21.9628 122.805 21.7109C122.213 21.4679 121.677 21.1072 121.228 20.6507C120.762 20.1774 120.394 19.6164 120.145 19.0001C119.874 18.3265 119.739 17.6057 119.748 16.8796C119.746 16.1858 119.864 15.497 120.097 14.8434C120.323 14.2353 120.662 13.6754 121.096 13.1928C121.516 12.7234 122.028 12.346 122.6 12.0844C123.204 11.8058 123.862 11.6658 124.526 11.6748C125.203 11.662 125.874 11.802 126.488 12.0844C127.049 12.3536 127.546 12.7397 127.945 13.2169C128.357 13.7098 128.667 14.2788 128.86 14.8916C129.065 15.5589 129.166 16.2538 129.161 16.9519V17.2049C129.166 17.2891 129.166 17.3737 129.161 17.4579H121.276C121.327 17.9447 121.466 18.4182 121.686 18.8555ZM127.704 16.3254C127.668 15.8816 127.575 15.4443 127.427 15.0242C127.289 14.6328 127.081 14.2697 126.813 13.9519C126.536 13.6205 126.187 13.3563 125.793 13.179C125.399 13.0016 124.97 12.9158 124.538 12.9278C124.122 12.9224 123.71 13.0131 123.335 13.1928C122.965 13.3612 122.633 13.6031 122.36 13.9037C122.071 14.219 121.839 14.5818 121.674 14.976C121.486 15.4041 121.368 15.8598 121.324 16.3254H127.704ZM133.807 19.0242C133.779 19.2598 133.806 19.4987 133.885 19.7223C133.965 19.9459 134.094 20.1481 134.265 20.3133C134.614 20.5651 135.038 20.6924 135.468 20.6748C135.711 20.6758 135.953 20.6515 136.191 20.6025C136.442 20.5413 136.685 20.4482 136.913 20.3254V21.6025C136.658 21.749 136.382 21.8547 136.094 21.9157C135.775 21.9915 135.447 22.0279 135.119 22.0242C134.74 22.0288 134.363 21.976 134 21.8675C133.67 21.7759 133.366 21.6112 133.109 21.3856C132.847 21.142 132.645 20.841 132.519 20.5061C132.366 20.0939 132.293 19.6565 132.303 19.2169V13.1928H130.918V11.8916H132.303V8.87959H133.795V11.8916H136.949V13.1928H133.795L133.807 19.0242ZM141.066 21.8555H139.585V11.8916H141.066V14.494C141.238 14.0839 141.465 13.6989 141.74 13.3495C142.003 13.0078 142.315 12.7073 142.667 12.4579C143.008 12.204 143.391 12.0123 143.798 11.8916C144.226 11.7568 144.674 11.6956 145.122 11.7109V13.3133H145.014C144.491 13.3104 143.972 13.4086 143.485 13.6025C143.027 13.802 142.616 14.0978 142.282 14.47C141.902 14.8847 141.611 15.3726 141.427 15.9037C141.214 16.5402 141.113 17.2086 141.126 17.8796L141.066 21.8555ZM147.421 9.71091V8.07236H149.119V9.71091H147.421ZM147.518 21.8555V11.8916H148.998V21.8555H147.518ZM159.29 21.5422C158.55 21.9335 157.719 22.1206 156.883 22.0844C156.184 22.093 155.49 21.9534 154.849 21.6748C154.245 21.4064 153.698 21.0262 153.236 20.5543C152.774 20.0794 152.41 19.5186 152.164 18.9037C151.908 18.268 151.778 17.5889 151.779 16.9037C151.778 16.2106 151.908 15.5236 152.164 14.8796C152.41 14.2609 152.774 13.6962 153.236 13.2169C153.697 12.7413 154.245 12.3571 154.849 12.0844C155.49 11.8058 156.184 11.6662 156.883 11.6748C157.316 11.6725 157.748 11.7169 158.171 11.8073C158.536 11.8932 158.892 12.0185 159.23 12.1808C159.549 12.3379 159.848 12.532 160.121 12.7591C160.384 12.9723 160.633 13.2016 160.867 13.4459L159.892 14.494C159.508 14.0846 159.071 13.7281 158.592 13.4338C158.074 13.1218 157.476 12.9669 156.871 12.988C156.385 12.9817 155.904 13.0847 155.462 13.2892C155.03 13.4821 154.641 13.7608 154.319 14.1085C154 14.4618 153.747 14.87 153.573 15.3133C153.391 15.7986 153.302 16.3133 153.308 16.8314C153.305 17.3732 153.412 17.91 153.621 18.4097C153.803 18.8545 154.064 19.2627 154.391 19.6145C154.935 20.1858 155.65 20.5633 156.428 20.6895C157.206 20.8157 158.004 20.6835 158.701 20.3133C159.194 20.0252 159.644 19.6682 160.037 19.2531L160.988 20.1326C160.502 20.6918 159.929 21.1679 159.29 21.5422Z"></path>
                                    <path fill="url(#paint0_linear)" d="M22.0642 7.39759V6.19277C22.0642 5.87323 21.9374 5.56678 21.7117 5.34084C21.4859 5.11489 21.1797 4.98795 20.8605 4.98795C20.5412 4.98795 20.2351 5.11489 20.0093 5.34084C19.7836 5.56678 19.6567 5.87323 19.6567 6.19277V8.08434C19.6567 8.40388 19.5299 8.71033 19.3042 8.93627C19.0784 9.16222 18.7723 9.28916 18.453 9.28916C18.1338 9.28916 17.8276 9.16222 17.6018 8.93627C17.3761 8.71033 17.2493 8.40388 17.2493 8.08434V1.20482C17.2493 0.885281 17.1224 0.578831 16.8967 0.352883C16.671 0.126936 16.3648 0 16.0455 0C15.7263 0 15.4201 0.126936 15.1944 0.352883C14.9686 0.578831 14.8418 0.885281 14.8418 1.20482V20.8193C14.8418 21.1388 14.715 21.4453 14.4892 21.6712C14.2635 21.8972 13.9573 22.0241 13.6381 22.0241C13.3188 22.0241 13.0126 21.8972 12.7869 21.6712C12.5611 21.4453 12.4343 21.1388 12.4343 20.8193V6.14458C12.4343 5.82504 12.3075 5.51859 12.0818 5.29264C11.856 5.06669 11.5498 4.93976 11.2306 4.93976C10.9113 4.93976 10.6052 5.06669 10.3794 5.29264C10.1537 5.51859 10.0268 5.82504 10.0268 6.14458V12.3855C10.0268 12.7051 9.90002 13.0115 9.67428 13.2375C9.44853 13.4634 9.14235 13.5904 8.8231 13.5904C8.50385 13.5904 8.19768 13.4634 7.97193 13.2375C7.74619 13.0115 7.61937 12.7051 7.61937 12.3855V10.988C7.61937 10.6684 7.49254 10.362 7.2668 10.136C7.04105 9.91007 6.73488 9.78313 6.41563 9.78313C6.09638 9.78313 5.7902 9.91007 5.56446 10.136C5.33871 10.362 5.21189 10.6684 5.21189 10.988V20.9759C5.21189 21.2954 5.33871 21.6019 5.56446 21.8278C5.7902 22.0538 6.09638 22.1807 6.41563 22.1807C6.73488 22.1807 7.04105 22.0538 7.2668 21.8278C7.49254 21.6019 7.61937 21.2954 7.61937 20.9759V16.6867C7.61937 16.3672 7.74619 16.0608 7.97193 15.8348C8.19768 15.6089 8.50385 15.4819 8.8231 15.4819C9.14235 15.4819 9.44853 15.6089 9.67428 15.8348C9.90002 16.0608 10.0268 16.3672 10.0268 16.6867V25.9277C10.0268 26.2472 10.1537 26.5537 10.3794 26.7796C10.6052 27.0056 10.9113 27.1325 11.2306 27.1325C11.5498 27.1325 11.856 27.0056 12.0818 26.7796C12.3075 26.5537 12.4343 26.2472 12.4343 25.9277V25.1084C12.4343 24.7889 12.5611 24.4824 12.7869 24.2565C13.0126 24.0306 13.3188 23.9036 13.6381 23.9036C13.9573 23.9036 14.2635 24.0306 14.4892 24.2565C14.715 24.4824 14.8418 24.7889 14.8418 25.1084V30.8675C14.8418 31.187 14.9686 31.4935 15.1944 31.7194C15.4201 31.9454 15.7263 32.0723 16.0455 32.0723C16.3648 32.0723 16.671 31.9454 16.8967 31.7194C17.1224 31.4935 17.2493 31.187 17.2493 30.8675V12.3855C17.2493 12.066 17.3761 11.7596 17.6018 11.5336C17.8276 11.3077 18.1338 11.1807 18.453 11.1807C18.7723 11.1807 19.0784 11.3077 19.3042 11.5336C19.5299 11.7596 19.6567 12.066 19.6567 12.3855V25.8554C19.6567 26.175 19.7836 26.4814 20.0093 26.7074C20.2351 26.9333 20.5412 27.0602 20.8605 27.0602C21.1797 27.0602 21.4859 26.9333 21.7117 26.7074C21.9374 26.4814 22.0642 26.175 22.0642 25.8554V20.5181C22.0642 20.1985 22.191 19.8921 22.4168 19.6661C22.6425 19.4402 22.9487 19.3133 23.268 19.3133C23.5872 19.3133 23.8934 19.4402 24.1191 19.6661C24.3449 19.8921 24.4717 20.1985 24.4717 20.5181V21.2771C24.5399 21.5422 24.6963 21.7761 24.9151 21.9404C25.1339 22.1046 25.4021 22.1894 25.6754 22.1807C25.9947 22.1807 26.3009 22.0538 26.5266 21.8278C26.7524 21.6019 26.8792 21.2954 26.8792 20.9759V11.0241C26.8792 10.7046 26.7524 10.3981 26.5266 10.1722C26.3009 9.94621 25.9947 9.81928 25.6754 9.81928C25.3562 9.81928 25.05 9.94621 24.8243 10.1722C24.5985 10.3981 24.4717 10.7046 24.4717 11.0241V16.2048C24.4717 16.5244 24.3449 16.8308 24.1191 17.0568C23.8934 17.2827 23.5872 17.4096 23.268 17.4096C22.9487 17.4096 22.6425 17.2827 22.4168 17.0568C22.191 16.8308 22.0642 16.5244 22.0642 16.2048V7.39759ZM2.45533 15.8313V16.1325C2.45533 16.4521 2.32851 16.7585 2.10276 16.9845C1.87702 17.2104 1.57084 17.3373 1.25159 17.3373C0.932339 17.3373 0.626163 17.2104 0.400418 16.9845C0.174674 16.7585 0.0478516 16.4521 0.0478516 16.1325V15.8313C0.0478516 15.5118 0.174674 15.2053 0.400418 14.9794C0.626163 14.7534 0.932339 14.6265 1.25159 14.6265C1.57084 14.6265 1.87702 14.7534 2.10276 14.9794C2.32851 15.2053 2.45533 15.5118 2.45533 15.8313ZM31.8145 15.8313V16.1205C31.8145 16.44 31.6877 16.7465 31.4619 16.9724C31.2362 17.1984 30.93 17.3253 30.6108 17.3253C30.2915 17.3253 29.9853 17.1984 29.7596 16.9724C29.5339 16.7465 29.407 16.44 29.407 16.1205V15.8313C29.407 15.5118 29.5339 15.2053 29.7596 14.9794C29.9853 14.7534 30.2915 14.6265 30.6108 14.6265C30.7709 14.6265 30.9294 14.6584 31.077 14.7205C31.2247 14.7825 31.3585 14.8734 31.4706 14.9879C31.5827 15.1023 31.6708 15.238 31.7299 15.387C31.7889 15.5359 31.8177 15.6952 31.8145 15.8554V15.8313Z" clip-rule="evenodd" fill-rule="evenodd"></path>
                                </g>
                                <defs>
                                    <linearGradient gradientUnits="userSpaceOnUse" y2="24.2687" x2="24.197" y1="7.71337" x1="7.62688" id="paint0_linear">
                                        <!-- <stop stop-color="#00DD74"></stop>
                                        <stop stop-color="#0BA0E0" offset="1"></stop>  -->
                                        <stop stop-color="#000000" offset="1"></stop>
                                    </linearGradient>
                                    <clipPath id="clip0">
                                        <rect fill="white" height="32" width="161"></rect>
                                    </clipPath>
                                </defs>
                            </svg>